<?xml version="1.0" encoding="UTF-8"?>
<svg width="64" height="64" viewBox="0 0 64 64" fill="none" xmlns="http://www.w3.org/2000/svg">
  <defs>
    <linearGradient id="g" x1="0" y1="0" x2="64" y2="64" gradientUnits="userSpaceOnUse">
      <stop stop-color="#7C3AED"/>
      <stop offset="1" stop-color="#06B6D4"/>
    </linearGradient>
  </defs>
  <rect width="64" height="64" rx="14" fill="url(#g)"/>
  <path d="M31.2 11.5c.5-1 1.9-1 2.4 0l5.1 10.1c.2.3.4.5.7.7l11.2 1.6c1.1.2 1.5 1.6.7 2.4L44 34.1c-.2.3-.3.6-.3.9l1.9 11.1c.2 1.1-1 1.9-2 1.4l-10-5.3c-.3-.2-.7-.2-1 0l-10 5.3c-1 .5-2.2-.3-2-1.4l1.9-11.1c0-.3-.1-.6-.3-.9L12 26.3c-.8-.8-.4-2.2.7-2.4l11.2-1.6c.3-.1.6-.3.7-.7l5.1-10.1Z" fill="#fff"/>
</svg>
